<?xml version="1.0" encoding="UTF-8"?>
<!DOCTYPE svg PUBLIC "-//W3C//DTD SVG 1.1//EN" "http://www.w3.org/Graphics/SVG/1.1/DTD/svg11.dtd">
<!-- Creator: CorelDRAW X8 -->
<svg xmlns="http://www.w3.org/2000/svg" xml:space="preserve" width="133px" height="117px" version="1.1" style="shape-rendering:geometricPrecision; text-rendering:geometricPrecision; image-rendering:optimizeQuality; fill-rule:evenodd; clip-rule:evenodd"
viewBox="0 0 133 117"
 xmlns:xlink="http://www.w3.org/1999/xlink">
 <defs>
  <style type="text/css">
   <![CDATA[
    .fil0 {fill:#95E1D3}
   ]]>
  </style>
 </defs>
 <g id="Слой_x0020_1">
  <metadata id="CorelCorpID_0Corel-Layer"/>
  <g id="_1793613131568">
   <path class="fil0" d="M13 8l108 0 0 71 -108 0 0 -71zm-9 -4l-4 0 0 88 4 0 0 4 42 0 0 12 -4 0 0 4 -4 0 0 5 58 0 0 -5 -4 0 0 -4 -4 0 0 -12 41 0 0 -4 5 0 0 -88 -5 0 0 -4 -125 0 0 4z"/>
   <polygon class="fil0" points="75,33 71,33 71,37 67,37 67,42 59,42 59,37 50,37 50,42 46,42 46,46 50,46 50,50 54,50 54,54 59,54 59,58 67,58 67,54 71,54 71,50 75,50 75,46 79,46 79,42 84,42 84,37 88,37 88,33 84,33 84,29 75,29 "/>
  </g>
 </g>
</svg>
