<?xml version="1.0" encoding="UTF-8"?>
<!DOCTYPE svg PUBLIC "-//W3C//DTD SVG 1.1//EN" "http://www.w3.org/Graphics/SVG/1.1/DTD/svg11.dtd">
<!-- Creator: CorelDRAW X8 -->
<svg xmlns="http://www.w3.org/2000/svg" xml:space="preserve" width="133px" height="133px" version="1.1" style="shape-rendering:geometricPrecision; text-rendering:geometricPrecision; image-rendering:optimizeQuality; fill-rule:evenodd; clip-rule:evenodd"
viewBox="0 0 133 133"
 xmlns:xlink="http://www.w3.org/1999/xlink">
 <defs>
  <style type="text/css">
   <![CDATA[
    .fil0 {fill:#95E1D3}
   ]]>
  </style>
 </defs>
 <g id="Слой_x0020_1">
  <metadata id="CorelCorpID_0Corel-Layer"/>
  <g id="_1795109754096">
   <path class="fil0" d="M12 12l109 0 0 108 -109 0 0 -108zm121 121l0 -133 -133 0 0 133 133 0z"/>
   <polygon class="fil0" points="104,54 100,54 100,58 92,58 92,62 87,62 87,66 79,66 79,70 75,70 75,75 71,75 71,70 62,70 62,66 58,66 58,62 50,62 50,58 46,58 46,54 37,54 37,58 29,58 29,62 25,62 25,66 21,66 21,70 17,70 17,75 21,75 21,79 33,79 33,75 37,75 37,70 46,70 46,75 50,75 50,79 58,79 58,83 62,83 62,87 71,87 71,91 75,91 75,87 83,87 83,83 87,83 87,79 96,79 96,75 100,75 100,70 108,70 108,66 112,66 112,62 117,62 117,54 112,54 112,50 104,50 "/>
  </g>
 </g>
</svg>
