<?xml version="1.0" encoding="UTF-8"?>
<!DOCTYPE svg PUBLIC "-//W3C//DTD SVG 1.1//EN" "http://www.w3.org/Graphics/SVG/1.1/DTD/svg11.dtd">
<!-- Creator: CorelDRAW X8 -->
<svg xmlns="http://www.w3.org/2000/svg" xml:space="preserve" width="133px" height="125px" version="1.1" style="shape-rendering:geometricPrecision; text-rendering:geometricPrecision; image-rendering:optimizeQuality; fill-rule:evenodd; clip-rule:evenodd"
viewBox="0 0 133 125"
 xmlns:xlink="http://www.w3.org/1999/xlink">
 <defs>
  <style type="text/css">
   <![CDATA[
    .fil0 {fill:#95E1D3}
   ]]>
  </style>
 </defs>
 <g id="Слой_x0020_1">
  <metadata id="CorelCorpID_0Corel-Layer"/>
  <g id="_1793616786400">
   <path class="fil0" d="M33 76l21 0 0 25 -21 0 0 -25zm25 -50l0 4 -4 0 0 4 -4 0 0 4 -4 0 0 4 -4 0 0 4 -5 0 0 5 -4 0 0 4 -4 0 0 4 -4 0 0 4 -4 0 0 4 -4 0 0 4 -5 0 0 55 67 0 0 -50 21 0 0 50 21 0 0 -55 -4 0 0 -4 -5 0 0 -4 -4 0 0 -4 -4 0 0 -4 -4 0 0 -4 -4 0 0 -5 -4 0 0 -4 -5 0 0 -4 -4 0 0 -4 -4 0 0 -4 -4 0 0 -4 -4 0 0 -5 -9 0 0 5 -4 0z"/>
   <polygon class="fil0" points="12,71 12,67 17,67 17,63 21,63 21,59 25,59 25,55 29,55 29,51 33,51 33,46 37,46 37,42 42,42 42,38 46,38 46,34 50,34 50,30 54,30 54,26 58,26 58,21 62,21 62,17 71,17 71,21 75,21 75,26 79,26 79,30 83,30 83,34 87,34 87,38 92,38 92,42 96,42 96,46 100,46 100,51 104,51 104,55 108,55 108,59 112,59 112,63 117,63 117,67 121,67 121,71 133,71 133,59 129,59 129,55 125,55 125,51 121,51 121,46 117,46 117,42 112,42 112,38 108,38 108,13 96,13 96,21 92,21 92,17 87,17 87,13 83,13 83,9 79,9 79,5 75,5 75,1 58,1 58,5 54,5 54,9 50,9 50,13 46,13 46,17 42,17 42,21 37,21 37,26 33,26 33,30 29,30 29,34 25,34 25,38 21,38 21,42 17,42 17,46 12,46 12,51 8,51 8,55 4,55 4,59 0,59 0,71 "/>
  </g>
 </g>
</svg>
