<?xml version="1.0" encoding="UTF-8"?>
<!DOCTYPE svg PUBLIC "-//W3C//DTD SVG 1.1//EN" "http://www.w3.org/Graphics/SVG/1.1/DTD/svg11.dtd">
<!-- Creator: CorelDRAW X8 -->
<svg xmlns="http://www.w3.org/2000/svg" xml:space="preserve" width="18px" height="14px" version="1.1" style="shape-rendering:geometricPrecision; text-rendering:geometricPrecision; image-rendering:optimizeQuality; fill-rule:evenodd; clip-rule:evenodd"
viewBox="0 0 18 14"
 xmlns:xlink="http://www.w3.org/1999/xlink">
 <defs>
  <style type="text/css">
   <![CDATA[
    .fil0 {fill:white}
   ]]>
  </style>
   <clipPath id="id0">
    <rect width="16.7597" height="13.9672"/>
   </clipPath>
 </defs>
 <g id="Слой_x0020_1">
  <metadata id="CorelCorpID_0Corel-Layer"/>
  <g style="clip-path:url(#id0)">
   <image id="cat.png" x="0" y="0" width="16.7585" height="13.966" xlink:href="65108-cat-2b545fa0-75d4-4e73-9e7b-974d7fefd20d_Images\65108-cat-2b545fa0-75d4-4e73-9e7b-974d7fefd20d_ImgID1.gif"/>
  </g>
  <path class="fil0" d="M13 8l-7 0 0 -1 0 0 0 -3 8 0 0 2 -1 0 0 2zm-13 -8l0 2 1 0 0 1 2 0 0 2 1 0 0 3 1 0 0 1 1 0 0 1 -3 0 0 3 1 0 0 1 2 0 0 -2 7 0 0 1 1 0 0 1 2 0 0 -4 -9 0 0 -1 7 0 0 -1 1 0 0 -1 1 0 0 -2 1 0 0 -3 -12 0 0 -1 -1 0 0 -1 -4 0z"/>
 </g>
</svg>
