<?xml version="1.0" encoding="UTF-8"?>
<!DOCTYPE svg PUBLIC "-//W3C//DTD SVG 1.1//EN" "http://www.w3.org/Graphics/SVG/1.1/DTD/svg11.dtd">
<!-- Creator: CorelDRAW X8 -->
<svg xmlns="http://www.w3.org/2000/svg" xml:space="preserve" width="18px" height="18px" version="1.1" style="shape-rendering:geometricPrecision; text-rendering:geometricPrecision; image-rendering:optimizeQuality; fill-rule:evenodd; clip-rule:evenodd"
viewBox="0 0 18 18"
 xmlns:xlink="http://www.w3.org/1999/xlink">
 <defs>
  <style type="text/css">
   <![CDATA[
    .fil0 {fill:white}
   ]]>
  </style>
   <clipPath id="id0">
    <rect width="17.9716" height="17.9716"/>
   </clipPath>
 </defs>
 <g id="Слой_x0020_1">
  <metadata id="CorelCorpID_0Corel-Layer"/>
  <path class="fil0" d="M2 8c0,-3 1,-3 1,-5 3,-1 8,-3 8,5 0,5 -9,3 -9,0zm3 -8l3 0c2,0 4,1 5,3 2,3 0,3 0,5 1,6 4,6 5,7l0 1c0,0 0,1 -1,1 -2,2 -2,0 -4,-2 -4,-3 0,-2 -5,-2 -2,0 -8,1 -8,-6 0,-4 2,-6 5,-7z"/>
  <g style="clip-path:url(#id0)">
   <image id="glass.png" x="0" y="0" width="17.9705" height="17.9705" xlink:href="65108-glass-f3d810ba-b60c-470a-8423-4f08af2d4e52_Images\65108-glass-f3d810ba-b60c-470a-8423-4f08af2d4e52_ImgID1.gif"/>
  </g>
  <path class="fil0" d="M2 5l1 0 0 -2 2 0 0 -1 4 0 0 1 1 0 0 1 1 0 0 6 -1 0 0 1 -6 0 0 -1 -1 0 0 -1 -1 0 0 -4zm2 -4l-2 0 0 1 -1 0 0 2 -1 0 0 6 1 0 0 1 1 0 0 1 1 0 0 1 2 0 0 1 3 0 0 -1 3 0 0 1 1 0 0 1 1 0 0 1 1 0 0 1 1 0 0 1 2 0 0 -1 1 0 0 -2 -1 0 0 -1 -1 0 0 -1 -1 0 0 -1 -1 0 0 -1 -1 0 0 -3 1 0 0 -3 -1 0 0 -2 -1 0 0 -1 -1 0 0 -1 -1 0 0 -1 -6 0 0 1z"/>
 </g>
</svg>
