<svg xmlns="http://www.w3.org/2000/svg"><path d="M75 117V34l46-17v79c-15 8-31 13-46 21zM12 17c8 4 14 5 21 8 11 6 10 7 25 9v83c-15-8-31-13-46-21V17zM133 0c-29 1-46 22-66 22C46 22 29 1 0 0v109c18 4 53 24 67 24 13 0 48-20 66-24V0z"/><path d="M17 59c3 12 2 10 13 15 9 5 12 5 24 6V67c-14-3-29-17-37-8zM79 67v13c20-1 33-5 38-21-17-8-18 3-38 8zM17 84c5 7 22 23 32 18 17-7-16-22-24-22-2 0-8 3-8 4zM17 38c5 8 22 23 32 18 17-6-16-22-24-22-2 0-8 3-8 4zM117 38c-1 0-8-4-9-4-6 0-37 11-26 21 8 8 29-8 35-17zM117 84c-1 0-8-4-9-4-6 0-37 10-26 21 8 8 29-9 35-17z"/></svg>