<svg aria-hidden="true" style="position: absolute; width: 0; height: 0; overflow: hidden;" version="1.1" xmlns="http://www.w3.org/2000/svg" xmlns:xlink="http://www.w3.org/1999/xlink">
<defs>


<symbol id="icon-facebook" viewBox="0 0 27 27">
<title>icon-facebook</title>
<path d="M10.453 0h-6.187v0.853h-1.067v0.853h-0.853v2.56h-0.853v3.627h-1.707v3.627h1.707v11.52h5.333v-11.52h3.627v-3.627h-3.627v-2.56h0.853v-1.067h2.773z"></path>
</symbol>

<symbol id="icon-instagram" viewBox="0 0 25 25">
<title>icon-instagram</title>
<path d="M2.773 9.813h1.707v4.48h0.853v1.707h1.067v0.853h0.853v1.067h1.707v0.853h5.333v-0.853h1.707v-1.067h1.067v-0.853h0.853v-1.707h0.853v-4.48h1.707v9.813h-0.853v0.853h-16v-0.853h-0.853v-9.813zM7.253 10.667h0.853v-1.707h0.853v-0.853h1.707v-0.853h1.92v0.853h1.707v0.853h0.853v0.853h0.853v2.773h-0.853v1.707h-0.853v0.853h-1.707v0.853h-1.92v-0.853h-1.707v-0.853h-0.853v-1.707h-0.853v-1.92zM16 3.627h1.067v-0.853h2.56v0.853h0.853v3.627h-4.48v-3.627zM1.92 0.853h-0.853v1.067h-1.067v19.413h1.067v0.853h0.853v1.067h20.48v-1.067h0.853v-21.333h-0.853v-0.853h-20.48v0.853z"></path>
</symbol>

<symbol id="icon-pinterest" viewBox="0 0 25 25">
<title>icon-pinterest</title>
<path d="M5.333 0.853h-1.707v0.853h-0.853v0.853h-0.853v1.067h-1.067v1.707h-0.853v6.187h0.853v0.853h1.067v0.853h1.707v-2.56h-0.853v-4.48h0.853v-1.707h0.853v-0.853h1.707v-1.067h5.333v1.067h1.067v0.853h0.853v2.56h0.853v0.853h-0.853v3.627h-0.853v1.707h-1.067v1.067h-2.56v-1.067h-0.853v-1.707h0.853v-3.627h0.853v-0.853h-0.853v-1.707h-3.627v1.707h-0.853v2.773h0.853v1.707h-0.853v3.627h-0.853v6.187h-0.853v0.853h0.853v0.853h0.853v-0.853h0.853v-1.707h0.853v-2.773h1.067v-1.707h1.707v0.853h3.627v-0.853h1.707v-0.853h0.853v-0.853h0.853v-1.92h0.853v-2.56h1.067v-3.627h-1.067v-2.56h-0.853v-1.067h-0.853v-0.853h-0.853v-0.853h-1.707v-0.853h-7.253z"></path>
</symbol>

<symbol id="icon-twitter" viewBox="0 0 25 25">
<title>icon-twitter</title>
<path d="M14.293 0.853h-1.92v0.853h-0.853v1.707h-0.853v2.773h-0.853v-0.853h-2.773v-0.853h-1.707v-1.067h-1.707v-0.853h-0.853v-0.853h-1.92v4.48h0.853v0.853h-0.853v2.773h0.853v0.853h1.067v2.56h0.853v0.853h1.707v1.92h-1.707v0.853h-3.627v0.853h1.707v0.853h3.627v0.853h3.627v-0.853h3.413v-0.853h1.92v-0.853h1.707v-0.853h0.853v-0.853h0.853v-1.92h1.067v-0.853h0.853v-2.56h0.853v-4.48h0.853v-0.853h0.853v-1.067h0.853v-0.853h-0.853v-1.707h-1.707v0.853h-1.707v-0.853h-1.92v-0.853h-2.56z"></path>
</symbol>




<symbol id="icon-alarm" viewBox="0 0 32 32">
<title>icon-alarm</title>
<path d="M4.48 10.667h0.853v-1.707h0.853v-0.853h0.853v-0.853h0.853v-1.067h0.853v-0.853h1.92v-0.853h7.040v0.853h1.707v0.853h1.067v1.067h0.853v0.853h0.853v0.853h0.853v1.707h0.853v7.253h-0.853v1.707h-0.853v0.853h-0.853v0.853h-0.853v0.853h-1.067v1.067h-1.707v0.853h-7.040v-0.853h-1.92v-1.067h-0.853v-0.853h-0.853v-0.853h-0.853v-0.853h-0.853v-1.707h-0.853v-7.253zM8.747 1.92v0.853h-1.707v0.853h-0.853v0.853h-0.853v0.853h-0.853v0.853h-1.067v1.067h-0.853v1.707h-0.853v2.56h-0.853v5.333h0.853v2.773h0.853v1.707h0.853v0.853h1.067v1.92h-1.067v0.853h-0.853v1.707h0.853v0.853h1.067v-0.853h0.853v-0.853h3.413v0.853h2.773v0.853h5.333v-0.853h2.56v-0.853h1.92v-0.853h0.853v0.853h0.853v0.853h0.853v0.853h0.853v-0.853h1.067v-1.707h-1.067v-0.853h-0.853v-1.92h0.853v-0.853h1.067v-1.707h0.853v-2.773h0.853v-5.333h-0.853v-2.56h-0.853v-1.707h-1.067v-1.067h-0.853v-0.853h-0.853v-0.853h-0.853v-0.853h-0.853v-0.853h-1.92v-0.853h-2.56v-1.067h-5.333v1.067h-2.773z"></path>
<path d="M13.227 6.187h-0.853v8.96h0.853v0.853h7.253v-0.853h0.853v-1.707h-0.853v-0.853h-4.48v-6.4h-0.853v-0.853h-1.92zM1.707 8.96v-1.707h0.853v-1.92h0.853v-0.853h1.067v-0.853h0.853v-0.853h1.707v-0.853h1.707v-1.067h-0.853v-0.853h-5.333v0.853h-0.853v1.067h-0.853v0.853h-0.853v5.333h0.853v0.853zM21.333 2.773h1.707v0.853h0.853v0.853h0.853v0.853h1.067v1.92h0.853v0.853h1.707v-5.333h-0.853v-0.853h-0.853v-1.067h-0.853v-0.853h-5.333v1.92h0.853z"></path>
</symbol>

<symbol id="icon-book" viewBox="0 0 32 32">
<title>icon-book</title>
<path d="M16 24.96v-17.707l9.813-3.627v16.853c-3.2 1.707-6.613 2.773-9.813 4.48zM2.56 3.627c1.707 0.853 2.987 1.067 4.48 1.707 2.347 1.28 2.133 1.493 5.333 1.92v17.707c-3.2-1.707-6.613-2.773-9.813-4.48v-16.853zM28.373 0c-6.187 0.213-9.813 4.693-14.080 4.693-4.48 0-8.107-4.48-14.293-4.693v23.253c3.84 0.853 11.307 5.12 14.293 5.12 2.773 0 10.24-4.267 14.080-5.12v-23.253z"></path>
<path d="M3.627 12.587c0.64 2.56 0.427 2.133 2.773 3.2 1.92 1.067 2.56 1.067 5.12 1.28v-2.773c-2.987-0.64-6.187-3.627-7.893-1.707zM16.853 14.293v2.773c4.267-0.213 7.040-1.067 8.107-4.48-3.627-1.707-3.84 0.64-8.107 1.707zM3.627 17.92c1.067 1.493 4.693 4.907 6.827 3.84 3.627-1.493-3.413-4.693-5.12-4.693-0.427 0-1.707 0.64-1.707 0.853zM3.627 8.107c1.067 1.707 4.693 4.907 6.827 3.84 3.627-1.28-3.413-4.693-5.12-4.693-0.427 0-1.707 0.64-1.707 0.853zM24.96 8.107c-0.213 0-1.707-0.853-1.92-0.853-1.28 0-7.893 2.347-5.547 4.48 1.707 1.707 6.187-1.707 7.467-3.627zM24.96 17.92c-0.213 0-1.707-0.853-1.92-0.853-1.28 0-7.893 2.133-5.547 4.48 1.707 1.707 6.187-1.92 7.467-3.627z"></path>
</symbol>

<symbol id="icon-graph" viewBox="0 0 32 32">
<title>icon-graph</title>
<path d="M2.56 2.56h23.253v23.040h-23.253v-23.040zM28.373 28.373v-28.373h-28.373v28.373h28.373z"></path>
<path d="M22.187 11.52h-0.853v0.853h-1.707v0.853h-1.067v0.853h-1.707v0.853h-0.853v1.067h-0.853v-1.067h-1.92v-0.853h-0.853v-0.853h-1.707v-0.853h-0.853v-0.853h-1.92v0.853h-1.707v0.853h-0.853v0.853h-0.853v0.853h-0.853v1.067h0.853v0.853h2.56v-0.853h0.853v-1.067h1.92v1.067h0.853v0.853h1.707v0.853h0.853v0.853h1.92v0.853h0.853v-0.853h1.707v-0.853h0.853v-0.853h1.92v-0.853h0.853v-1.067h1.707v-0.853h0.853v-0.853h1.067v-1.707h-1.067v-0.853h-1.707z"></path>
</symbol>

<symbol id="icon-home" viewBox="0 0 32 32">
<title>icon-home</title>
<path d="M7.040 16.213h4.48v5.333h-4.48v-5.333zM12.373 5.547v0.853h-0.853v0.853h-0.853v0.853h-0.853v0.853h-0.853v0.853h-1.067v1.067h-0.853v0.853h-0.853v0.853h-0.853v0.853h-0.853v0.853h-0.853v0.853h-1.067v11.733h14.293v-10.667h4.48v10.667h4.48v-11.733h-0.853v-0.853h-1.067v-0.853h-0.853v-0.853h-0.853v-0.853h-0.853v-0.853h-0.853v-1.067h-0.853v-0.853h-1.067v-0.853h-0.853v-0.853h-0.853v-0.853h-0.853v-0.853h-0.853v-1.067h-1.92v1.067h-0.853z"></path>
<path d="M2.56 15.147v-0.853h1.067v-0.853h0.853v-0.853h0.853v-0.853h0.853v-0.853h0.853v-1.067h0.853v-0.853h1.067v-0.853h0.853v-0.853h0.853v-0.853h0.853v-0.853h0.853v-1.067h0.853v-0.853h1.92v0.853h0.853v1.067h0.853v0.853h0.853v0.853h0.853v0.853h1.067v0.853h0.853v0.853h0.853v1.067h0.853v0.853h0.853v0.853h0.853v0.853h1.067v0.853h0.853v0.853h2.56v-2.56h-0.853v-0.853h-0.853v-0.853h-0.853v-1.067h-0.853v-0.853h-1.067v-0.853h-0.853v-5.333h-2.56v1.707h-0.853v-0.853h-1.067v-0.853h-0.853v-0.853h-0.853v-0.853h-0.853v-0.853h-3.627v0.853h-0.853v0.853h-0.853v0.853h-0.853v0.853h-0.853v0.853h-1.067v1.067h-0.853v0.853h-0.853v0.853h-0.853v0.853h-0.853v0.853h-0.853v0.853h-1.067v1.067h-0.853v0.853h-0.853v0.853h-0.853v2.56z"></path>
</symbol>

<symbol id="icon-image" viewBox="0 0 32 32">
<title>icon-image</title>
<path d="M2.56 2.56h23.253v23.253h-23.253v-23.253zM28.373 28.373v-28.373h-28.373v28.373h28.373z"></path>
<path d="M3.627 11.52h0.853v0.853h1.707v-0.853h0.853v-4.48h4.48v-0.853h0.853v-1.707h-0.853v-0.853h-7.893zM16.853 4.48h-0.853v1.707h0.853v0.853h4.48v4.48h0.853v0.853h1.707v-0.853h1.067v-7.893h-8.107zM4.48 16.853h-0.853v8.107h7.893v-1.067h0.853v-1.707h-0.853v-0.853h-4.48v-4.48h-0.853v-0.853h-1.707zM22.187 16.853h-0.853v4.48h-4.48v0.853h-0.853v1.707h0.853v1.067h8.107v-8.107h-1.067v-0.853h-1.707z"></path>
</symbol>

<symbol id="icon-computer" viewBox="0 0 32 32">
<title>icon-computer</title>
<path d="M2.773 1.707h23.040v15.147h-23.040v-15.147zM0.853 0.853h-0.853v18.773h0.853v0.853h8.96v2.56h-0.853v0.853h-0.853v1.067h12.373v-1.067h-0.853v-0.853h-0.853v-2.56h8.747v-0.853h1.067v-18.773h-1.067v-0.853h-26.667v0.853z"></path>
<path d="M16 7.040h-0.853v0.853h-0.853v1.067h-1.707v-1.067h-1.92v1.067h-0.853v0.853h0.853v0.853h0.853v0.853h1.067v0.853h1.707v-0.853h0.853v-0.853h0.853v-0.853h0.853v-0.853h1.067v-1.067h0.853v-0.853h-0.853v-0.853h-1.92z"></path>
</symbol>



<symbol id="icon-cat-shopping" viewBox="0 0 16 16">
<title>icon-cat-shopping</title>
<path d="M13 8H6V4h8v2h-1v2zM0 0v2h1v1h2v2h1v3h1v1h1v1H3v3h1v1h2v-2h7v1h1v1h2v-4H7V9h7V8h1V7h1V5h1V2H5V1H4V0H0z"/>

</symbol>

<symbol id="icon-glass-magnifying" viewBox="0 0 18 18">
<title>icon-glass-magnifying</title>
<path d="M2 8c0-3 1-3 1-5 3-1 8-3 8 5 0 5-9 3-9 0zm3-8h3c2 0 4 1 5 3 2 3 0 3 0 5 1 6 4 6 5 7v1s0 1-1 1c-2 2-2 0-4-2-4-3 0-2-5-2-2 0-8 1-8-6 0-4 2-6 5-7z"/>
</symbol>





</defs>
</svg>
