<?xml version="1.0" encoding="UTF-8"?>
<!DOCTYPE svg PUBLIC "-//W3C//DTD SVG 1.1//EN" "http://www.w3.org/Graphics/SVG/1.1/DTD/svg11.dtd">
<!-- Creator: CorelDRAW X8 -->
<svg xmlns="http://www.w3.org/2000/svg" xml:space="preserve" width="108px" height="108px" version="1.1" style="shape-rendering:geometricPrecision; text-rendering:geometricPrecision; image-rendering:optimizeQuality; fill-rule:evenodd; clip-rule:evenodd"
viewBox="0 0 108 108"
 xmlns:xlink="http://www.w3.org/1999/xlink">
 <defs>
  <style type="text/css">
   <![CDATA[
    .fil0 {fill:#F38181}
   ]]>
  </style>
 </defs>
 <g id="Слой_x0020_1">
  <metadata id="CorelCorpID_0Corel-Layer"/>
  <path class="fil0" d="M13 46l8 0 0 21 4 0 0 8 5 0 0 4 4 0 0 5 8 0 0 4 25 0 0 -4 8 0 0 -5 5 0 0 -4 4 0 0 -8 4 0 0 -21 8 0 0 46 -4 0 0 4 -75 0 0 -4 -4 0 0 -46zm21 4l4 0 0 -8 4 0 0 -4 8 0 0 -4 9 0 0 4 8 0 0 4 4 0 0 4 4 0 0 13 -4 0 0 8 -4 0 0 4 -8 0 0 4 -9 0 0 -4 -8 0 0 -4 -4 0 0 -8 -4 0 0 -9zm41 -33l5 0 0 -4 12 0 0 4 4 0 0 17 -21 0 0 -17zm-66 -13l-4 0 0 5 -5 0 0 91 5 0 0 4 4 0 0 5 96 0 0 -5 4 0 0 -100 -4 0 0 -4 -96 0 0 4z"/>
 </g>
</svg>
