<?xml version="1.0" encoding="UTF-8"?>
<!DOCTYPE svg PUBLIC "-//W3C//DTD SVG 1.1//EN" "http://www.w3.org/Graphics/SVG/1.1/DTD/svg11.dtd">
<!-- Creator: CorelDRAW X8 -->
<svg xmlns="http://www.w3.org/2000/svg" xml:space="preserve" width="108px" height="92px" version="1.1" style="shape-rendering:geometricPrecision; text-rendering:geometricPrecision; image-rendering:optimizeQuality; fill-rule:evenodd; clip-rule:evenodd"
viewBox="0 0 108 92"
 xmlns:xlink="http://www.w3.org/1999/xlink">
 <defs>
  <style type="text/css">
   <![CDATA[
    .fil0 {fill:#F38181}
   ]]>
  </style>
 </defs>
 <g id="Слой_x0020_1">
  <metadata id="CorelCorpID_0Corel-Layer"/>
  <polygon class="fil0" points="67,4 58,4 58,8 54,8 54,16 50,16 50,29 46,29 46,25 33,25 33,21 25,21 25,16 17,16 17,12 13,12 13,8 4,8 4,29 8,29 8,33 4,33 4,46 8,46 8,50 13,50 13,62 17,62 17,66 25,66 25,75 17,75 17,79 0,79 0,83 8,83 8,87 25,87 25,91 42,91 42,87 58,87 58,83 67,83 67,79 75,79 75,75 79,75 79,71 83,71 83,62 88,62 88,58 92,58 92,46 96,46 96,25 100,25 100,21 104,21 104,16 108,16 108,12 104,12 104,4 96,4 96,8 88,8 88,4 79,4 79,0 67,0 "/>
 </g>
</svg>
