    <svg xmlns="http://www.w3.org/2000/svg" viewbox="0 0 83 108"> 
 <polygon points="25,4 17,4 17,8 13,8 13,12 9,12 9,17 4,17 4,25 0,25 0,54 4,54 4,58 9,58 9,62 17,62 17,50 13,50 13,29 17,29 17,21 21,21 21,17 29,17 29,12 54,12 54,17 59,17 59,21 63,21 63,33 67,33 67,37 63,37 63,54 59,54 59,62 54,62 54,67 42,67 42,62 38,62 38,54 42,54 42,37 46,37 46,33 42,33 42,25 25,25 25,33 21,33 21,46 25,46 25,54 21,54 21,71 17,71 17,100 13,100 13,104 17,104 17,108 21,108 21,104 25,104 25,96 29,96 29,83 34,83 34,75 42,75 42,79 59,79 59,75 67,75 67,71 71,71 71,67 75,67 75,58 79,58 79,46 84,46 84,29 79,29 79,17 75,17 75,12 71,12 71,8 67,8 67,4 59,4 59,0 25,0 " />
</svg>