<svg aria-hidden="true" style="position:absolute;width:0;height:0" xmlns="http://www.w3.org/2000/svg" overflow="hidden"><defs><symbol id="icon-facebook" viewBox="0 0 27 27"><path d="M10.453 0H4.266v.853H3.199v.853h-.853v2.56h-.853v3.627H-.214v3.627h1.707v11.52h5.333V11.52h3.627V7.893H6.826v-2.56h.853V4.266h2.773z"/></symbol><symbol id="icon-instagram" viewBox="0 0 25 25"><path d="M2.773 9.813H4.48v4.48h.853V16H6.4v.853h.853v1.067H8.96v.853h5.333v-.853H16v-1.067h1.067V16h.853v-1.707h.853v-4.48h1.707v9.813h-.853v.853h-16v-.853h-.853V9.813zm4.48.854h.853V8.96h.853v-.853h1.707v-.853h1.92v.853h1.707v.853h.853v.853h.853v2.773h-.853v1.707h-.853v.853h-1.707v.853h-1.92v-.853H8.959v-.853h-.853v-1.707h-.853v-1.92zM16 3.627h1.067v-.853h2.56v.853h.853v3.627H16V3.627zM1.92.853h-.853V1.92H0v19.413h1.067v.853h.853v1.067H22.4v-1.067h.853V.853H22.4V0H1.92v.853z"/></symbol><symbol id="icon-pinterest" viewBox="0 0 25 25"><path d="M5.333.853H3.626v.853h-.853v.853H1.92v1.067H.853v1.707H0v6.187h.853v.853H1.92v.853h1.707v-2.56h-.853v-4.48h.853V4.479h.853v-.853h1.707V2.559h5.333v1.067h1.067v.853h.853v2.56h.853v.853h-.853v3.627h-.853v1.707H11.52v1.067H8.96v-1.067h-.853v-1.707h.853V7.892h.853v-.853H8.96V5.332H5.333v1.707H4.48v2.773h.853v1.707H4.48v3.627h-.853v6.187h-.853v.853h.853v.853h.853v-.853h.853v-1.707h.853v-2.773h1.067v-1.707H8.96v.853h3.627v-.853h1.707v-.853h.853v-.853H16v-1.92h.853v-2.56h1.067V6.186h-1.067v-2.56H16V2.559h-.853v-.853h-.853V.853h-1.707V0H5.334z"/></symbol><symbol id="icon-twitter" viewBox="0 0 25 25"><path d="M14.293.853h-1.92v.853h-.853v1.707h-.853v2.773h-.853v-.853H7.041V4.48H5.334V3.413H3.627V2.56h-.853v-.853H.854v4.48h.853v.853H.854v2.773h.853v.853h1.067v2.56h.853v.853h1.707v1.92H3.627v.853H0v.853h1.707v.853h3.627v.853h3.627v-.853h3.413v-.853h1.92v-.853h1.707v-.853h.853v-.853h.853v-1.92h1.067v-.853h.853v-2.56h.853v-4.48h.853V4.48h.853V3.413h.853V2.56h-.853V.853h-1.707v.853h-1.707V.853h-1.92V0h-2.56z"/></symbol><symbol id="icon-alarm" viewBox="0 0 32 32"><path d="M4.48 10.667h.853V8.96h.853v-.853h.853v-.853h.853V6.187h.853v-.853h1.92v-.853h7.04v.853h1.707v.853h1.067v1.067h.853v.853h.853v.853h.853v1.707h.853v7.253h-.853v1.707h-.853v.853h-.853v.853h-.853v.853h-1.067v1.067h-1.707v.853h-7.04v-.853h-1.92v-1.067h-.853v-.853h-.853v-.853h-.853v-.853h-.853V17.92H4.48v-7.253zM8.747 1.92v.853H7.04v.853h-.853v.853h-.853v.853h-.853v.853H3.414v1.067h-.853v1.707h-.853v2.56H.855v5.333h.853v2.773h.853v1.707h.853v.853h1.067v1.92H3.414v.853h-.853v1.707h.853v.853h1.067v-.853h.853v-.853h3.413v.853h2.773v.853h5.333v-.853h2.56v-.853h1.92v-.853h.853v.853h.853v.853h.853v.853h.853v-.853h1.067v-1.707h-1.067v-.853h-.853v-1.92h.853v-.853h1.067v-1.707h.853v-2.773h.853v-5.333h-.853v-2.56h-.853V7.252h-1.067V6.185h-.853v-.853h-.853v-.853h-.853v-.853h-.853v-.853h-1.92V1.92h-2.56V.853H11.52V1.92H8.747z"/><path d="M13.227 6.187h-.853v8.96h.853V16h7.253v-.853h.853V13.44h-.853v-.853H16v-6.4h-.853v-.853h-1.92zM1.707 8.96V7.253h.853v-1.92h.853V4.48H4.48v-.853h.853v-.853H7.04v-.853h1.707V.854h-.853V.001H2.561v.853h-.853v1.067H.855v.853H.002v5.333h.853v.853zm19.626-6.187h1.707v.853h.853v.853h.853v.853h1.067v1.92h.853v.853h1.707V2.772h-.853v-.853h-.853V.852h-.853v-.853h-5.333v1.92h.853z"/></symbol><symbol id="icon-book" viewBox="0 0 32 32"><path d="M16 24.96V7.253l9.813-3.627v16.853c-3.2 1.707-6.613 2.773-9.813 4.48zM2.56 3.627c1.707.853 2.987 1.067 4.48 1.707 2.347 1.28 2.133 1.493 5.333 1.92v17.707c-3.2-1.707-6.613-2.773-9.813-4.48V3.628zM28.373 0c-6.187.213-9.813 4.693-14.08 4.693C9.813 4.693 6.186.213 0 0v23.253c3.84.853 11.307 5.12 14.293 5.12 2.773 0 10.24-4.267 14.08-5.12V0z"/><path d="M3.627 12.587c.64 2.56.427 2.133 2.773 3.2 1.92 1.067 2.56 1.067 5.12 1.28v-2.773c-2.987-.64-6.187-3.627-7.893-1.707zm13.226 1.706v2.773c4.267-.213 7.04-1.067 8.107-4.48-3.627-1.707-3.84.64-8.107 1.707zM3.627 17.92c1.067 1.493 4.693 4.907 6.827 3.84 3.627-1.493-3.413-4.693-5.12-4.693-.427 0-1.707.64-1.707.853zm0-9.813c1.067 1.707 4.693 4.907 6.827 3.84 3.627-1.28-3.413-4.693-5.12-4.693-.427 0-1.707.64-1.707.853zm21.333 0c-.213 0-1.707-.853-1.92-.853-1.28 0-7.893 2.347-5.547 4.48 1.707 1.707 6.187-1.707 7.467-3.627zm0 9.813c-.213 0-1.707-.853-1.92-.853-1.28 0-7.893 2.133-5.547 4.48 1.707 1.707 6.187-1.92 7.467-3.627z"/></symbol><symbol id="icon-graph" viewBox="0 0 32 32"><path d="M2.56 2.56h23.253V25.6H2.56V2.56zm25.813 25.813V0H0v28.373h28.373z"/><path d="M22.187 11.52h-.853v.853h-1.707v.853H18.56v.853h-1.707v.853H16v1.067h-.853v-1.067h-1.92v-.853h-.853v-.853h-1.707v-.853h-.853v-.853h-1.92v.853H6.187v.853h-.853v.853h-.853v.853h-.853v1.067h.853v.853h2.56v-.853h.853v-1.067h1.92v1.067h.853v.853h1.707v.853h.853v.853h1.92v.853H16v-.853h1.707v-.853h.853v-.853h1.92v-.853h.853v-1.067h1.707v-.853h.853v-.853h1.067v-1.707h-1.067v-.853h-1.707z"/></symbol><symbol id="icon-home" viewBox="0 0 32 32"><path d="M7.04 16.213h4.48v5.333H7.04v-5.333zm5.333-10.666V6.4h-.853v.853h-.853v.853h-.853v.853h-.853v.853H7.894v1.067h-.853v.853h-.853v.853h-.853v.853h-.853v.853h-.853v.853H2.562v11.733h14.293V16.21h4.48v10.667h4.48V15.144h-.853v-.853h-1.067v-.853h-.853v-.853h-.853v-.853h-.853v-.853h-.853V9.812h-.853v-.853h-1.067v-.853h-.853v-.853h-.853V6.4h-.853v-.853h-.853V4.48h-1.92v1.067h-.853z"/><path d="M2.56 15.147v-.853h1.067v-.853h.853v-.853h.853v-.853h.853v-.853h.853V9.815h.853v-.853h1.067v-.853h.853v-.853h.853v-.853h.853V5.55h.853V4.483h.853V3.63h1.92v.853h.853V5.55h.853v.853h.853v.853h.853v.853h1.067v.853h.853v.853h.853v1.067h.853v.853h.853v.853h.853v.853h1.067v.853h.853v.853h2.56v-2.56h-.853v-.853h-.853v-.853h-.853V9.814h-.853v-.853h-1.067v-.853h-.853V2.775h-2.56v1.707h-.853v-.853h-1.067v-.853h-.853v-.853h-.853V1.07h-.853V.217H12.37v.853h-.853v.853h-.853v.853h-.853v.853h-.853v.853H7.891v1.067h-.853v.853h-.853v.853h-.853v.853h-.853v.853h-.853v.853H2.559v1.067h-.853v.853H.853v.853H0v2.56z"/></symbol><symbol id="icon-image" viewBox="0 0 32 32"><path d="M2.56 2.56h23.253v23.253H2.56V2.56zm25.813 25.813V0H0v28.373h28.373z"/><path d="M3.627 11.52h.853v.853h1.707v-.853h.853V7.04h4.48v-.853h.853V4.48h-.853v-.853H3.627zm13.226-7.04H16v1.707h.853v.853h4.48v4.48h.853v.853h1.707v-.853h1.067V3.627h-8.107zM4.48 16.853h-.853v8.107h7.893v-1.067h.853v-1.707h-.853v-.853H7.04v-4.48h-.853V16H4.48zm17.707 0h-.853v4.48h-4.48v.853h-.853v1.707h.853v1.067h8.107v-8.107h-1.067V16h-1.707z"/></symbol><symbol id="icon-computer" viewBox="0 0 32 32"><path d="M2.773 1.707h23.04v15.147H2.773V1.707zM.853.853H0v18.773h.853v.853h8.96v2.56H8.96v.853h-.853v1.067H20.48v-1.067h-.853v-.853h-.853v-2.56h8.747v-.853h1.067V.853h-1.067V0H.854v.853z"/><path d="M16 7.04h-.853v.853h-.853V8.96h-1.707V7.893h-1.92V8.96h-.853v.853h.853v.853h.853v.853h1.067v.853h1.707v-.853h.853v-.853H16v-.853h.853V8.96h1.067V7.893h.853V7.04h-.853v-.853H16z"/></symbol><symbol id="icon-cat-shopping" viewBox="0 0 16 16"><path d="M13 8H6V4h8v2h-1v2zM0 0v2h1v1h2v2h1v3h1v1h1v1H3v3h1v1h2v-2h7v1h1v1h2v-4H7V9h7V8h1V7h1V5h1V2H5V1H4V0H0z"/></symbol><symbol id="icon-glass-magnifying" viewBox="0 0 18 18"><path d="M2 8c0-3 1-3 1-5 3-1 8-3 8 5 0 5-9 3-9 0zm3-8h3c2 0 4 1 5 3 2 3 0 3 0 5 1 6 4 6 5 7v1s0 1-1 1c-2 2-2 0-4-2-4-3 0-2-5-2-2 0-8 1-8-6 0-4 2-6 5-7z"/></symbol></defs></svg>