    <svg xmlns="http://www.w3.org/2000/svg" viewbox="0 0 133 125"> 
     <path d="M12 12l109 0 0 109 -109 0 0 -109zm121 121l0 -133 -133 0 0 133 133 0z"/>
   <polygon points="17,54 21,54 21,58 29,58 29,54 33,54 33,33 54,33 54,29 58,29 58,21 54,21 54,17 17,17 "/>
   <polygon points="79,21 75,21 75,29 79,29 79,33 100,33 100,54 104,54 104,58 112,58 112,54 117,54 117,17 79,17 "/>
   <polygon points="21,79 17,79 17,117 54,117 54,112 58,112 58,104 54,104 54,100 33,100 33,79 29,79 29,75 21,75 "/>
   <polygon points="104,79 100,79 100,100 79,100 79,104 75,104 75,112 79,112 79,117 117,117 117,79 112,79 112,75 104,75 "/>
</svg>