    <svg xmlns="http://www.w3.org/2000/svg" viewbox="0 0 133 133"> 
     <path 
                    d="M75 117l0 -83 46 -17 0 79c-15,8 -31,13 -46,21zm-63 -100c8,4 14,5 21,8 11,6 10,7 25,9l0 83c-15,-8 -31,-13 -46,-21l0 -79zm121 -17c-29,1 -46,22 -66,22 -21,0 -38,-21 -67,-22l0 109c18,4 53,24 67,24 13,0 48,-20 66,-24l0 -109z" />
                <path d="M17 59c3,12 2,10 13,15 9,5 12,5 24,6l0 -13c-14,-3 -29,-17 -37,-8z" />
                <path d="M79 67l0 13c20,-1 33,-5 38,-21 -17,-8 -18,3 -38,8z" />
                <path d="M17 84c5,7 22,23 32,18 17,-7 -16,-22 -24,-22 -2,0 -8,3 -8,4z" />
                <path d="M17 38c5,8 22,23 32,18 17,-6 -16,-22 -24,-22 -2,0 -8,3 -8,4z" />
                <path d="M117 38c-1,0 -8,-4 -9,-4 -6,0 -37,11 -26,21 8,8 29,-8 35,-17z" />
                <path d="M117 84c-1,0 -8,-4 -9,-4 -6,0 -37,10 -26,21 8,8 29,-9 35,-17z" />
</svg>