    <svg xmlns="http://www.w3.org/2000/svg" viewbox="0 0 133 129"> 
     <path d="M21 50l4 0 0 -8 4 0 0 -4 4 0 0 -4 4 0 0 -5 4 0 0 -4 9 0 0 -4 33 0 0 4 8 0 0 4 5 0 0 5 4 0 0 4 4 0 0 4 4 0 0 8 4 0 0 34 -4 0 0 8 -4 0 0 4 -4 0 0 4 -4 0 0 4 -5 0 0 5 -8 0 0 4 -33 0 0 -4 -9 0 0 -5 -4 0 0 -4 -4 0 0 -4 -4 0 0 -4 -4 0 0 -8 -4 0 0 -34zm20 -41l0 4 -8 0 0 4 -4 0 0 4 -4 0 0 4 -4 0 0 4 -5 0 0 5 -4 0 0 8 -4 0 0 12 -4 0 0 25 4 0 0 13 4 0 0 8 4 0 0 4 5 0 0 9 -5 0 0 4 -4 0 0 8 4 0 0 4 5 0 0 -4 4 0 0 -4 16 0 0 4 13 0 0 4 25 0 0 -4 12 0 0 -4 9 0 0 -4 4 0 0 4 4 0 0 4 4 0 0 4 4 0 0 -4 5 0 0 -8 -5 0 0 -4 -4 0 0 -9 4 0 0 -4 5 0 0 -8 4 0 0 -13 4 0 0 -25 -4 0 0 -12 -4 0 0 -8 -5 0 0 -5 -4 0 0 -4 -4 0 0 -4 -4 0 0 -4 -4 0 0 -4 -9 0 0 -4 -12 0 0 -5 -25 0 0 5 -13 0z" />
                <polygon points="62,29 58,29 58,71 62,71 62,75 96,75 96,71 100,71 100,63 96,63 96,59 75,59 75,29 71,29 71,25 62,25 " />
                <polygon points="8,42 8,34 12,34 12,25 16,25 16,21 21,21 21,17 25,17 25,13 33,13 33,9 41,9 41,4 37,4 37,0 12,0 12,4 8,4 8,9 4,9 4,13 0,13 0,38 4,38 4,42 " />
                <polygon points="100,13 108,13 108,17 112,17 112,21 116,21 116,25 121,25 121,34 125,34 125,38 133,38 133,13 129,13 129,9 125,9 125,4 121,4 121,0 96,0 96,9 100,9 " />
</svg>